<svg xmlns="http://www.w3.org/2000/svg" version="1.1" xmlns:xlink="http://www.w3.org/1999/xlink" xmlns:svgjs="http://svgjs.dev/svgjs" width="1000" height="750" viewBox="0 0 1000 750"><rect width="1000" height="750" fill="#000000"></rect><g transform="matrix(0.834,0,0,0.834,82.49454545454546,115.4193570850203)"><svg viewBox="0 0 396 247" data-background-color="#ffffff" preserveAspectRatio="xMidYMid meet" height="623" width="1000" xmlns="http://www.w3.org/2000/svg" xmlns:xlink="http://www.w3.org/1999/xlink"><g id="tight-bounds" transform="matrix(1,0,0,1,0.2400000000000091,-0.09999999999999432)"><svg viewBox="0 0 395.52 247.2" height="247.2" width="395.52"><rect width="395.5199890136719" height="247.1999969482422" fill="#ffffff" mask="url(#3efbcbda-a7f6-4de2-8c2a-63e9644ee64b)" data-fill-palette-color="tertiary"></rect><g><svg></svg></g><g><svg viewBox="0 0 395.52 247.2" height="247.2" width="395.52"><g><path xmlns="http://www.w3.org/2000/svg" d="M55.039 247.2l26.403-45.732 232.636 0 26.403 45.732zM197.76 0l26.403 45.732-52.806 0z" fill="#ffffff" fill-rule="nonzero" stroke="none" stroke-width="1" stroke-linecap="butt" stroke-linejoin="miter" stroke-miterlimit="10" stroke-dasharray="" stroke-dashoffset="0" font-family="none" font-weight="none" font-size="none" text-anchor="none" style="mix-blend-mode: normal" data-fill-palette-color="tertiary"></path></g><g transform="matrix(1,0,0,1,4.989463104939034,67.97999999999999)"><svg viewBox="0 0 385.5410737901219 111.24" height="111.24" width="385.5410737901219"><g><svg viewBox="0 0 387.4687791590725 111.79619999999998" height="111.24" width="385.5410737901219"><g></g><g transform="matrix(1,0,0,1,153.36540454606939,0.2780999999999949)"><svg viewBox="0 0 234.10337461300307 111.24" height="111.24" width="234.10337461300307"><g id="textblocktransform"><svg viewBox="0 0 234.10337461300307 111.24" height="111.24" width="234.10337461300307" id="textblock"><g><svg viewBox="0 0 234.10337461300307 111.24" height="111.24" width="234.10337461300307"><g transform="matrix(1,0,0,1,0,0)"><svg width="234.10337461300307" viewBox="1.0499999523162842 -30.959999084472656 66.37999725341797 31.549999237060547" height="111.24" data-palette-color="url(#46855add-472d-402d-a687-b8fde06ad52d)"></svg></g></svg></g></svg></g></svg></g><g transform="matrix(1,0,0,1,0,0.2780999999999949)"><svg viewBox="0 0 90.81147806638938 111.24" height="111.24" width="90.81147806638938"><g><svg xmlns="http://www.w3.org/2000/svg" xmlns:xlink="http://www.w3.org/1999/xlink" version="1.1" x="0" y="0" viewBox="0 0.0010929107666015625 102.86000061035156 125.9989013671875" style="enable-background:new 0 0 102.859 126.001;" xml:space="preserve" width="90.81147806638938" height="111.24" class="icon-icon-0" data-fill-palette-color="accent" id="icon-0"><g fill="#001f3f" data-fill-palette-color="accent"><path d="M59.728 53.013c1.084 0.308 2.185 0.463 3.272 0.463s2.188-0.155 3.272-0.463c0.531-0.15 0.84-0.703 0.689-1.234-0.15-0.531-0.704-0.842-1.234-0.689-1.813 0.514-3.642 0.514-5.455 0-0.53-0.152-1.084 0.158-1.234 0.689C58.887 52.309 59.196 52.862 59.728 53.013z" fill="#ffffff" data-fill-palette-color="accent"></path><path d="M69.614 42.952c2.621-2.051 5.062-2.052 7.685 0 0.183 0.144 0.4 0.213 0.616 0.213 0.297 0 0.591-0.132 0.788-0.384 0.34-0.435 0.264-1.063-0.171-1.403-3.32-2.6-6.83-2.6-10.15 0-0.435 0.34-0.512 0.969-0.171 1.403S69.18 43.293 69.614 42.952z" fill="#ffffff" data-fill-palette-color="accent"></path><path d="M47.469 41.378c-0.435 0.34-0.512 0.969-0.171 1.403s0.97 0.512 1.404 0.171c2.623-2.052 5.063-2.05 7.685 0 0.183 0.144 0.4 0.213 0.616 0.213 0.297 0 0.591-0.132 0.788-0.384 0.34-0.435 0.264-1.063-0.171-1.403C54.298 38.777 50.789 38.777 47.469 41.378z" fill="#ffffff" data-fill-palette-color="accent"></path><path d="M63 19.271c2.546 0 4.617-2.071 4.617-4.617S65.546 10.037 63 10.037s-4.617 2.071-4.617 4.617S60.454 19.271 63 19.271zM63 12.037c1.443 0 2.617 1.174 2.617 2.617S64.443 17.271 63 17.271s-2.617-1.174-2.617-2.617S61.557 12.037 63 12.037z" fill="#ffffff" data-fill-palette-color="accent"></path><path d="M36.087 13.499c0-1.717-1.396-3.113-3.113-3.113s-3.113 1.396-3.113 3.113c0 1.716 1.396 3.112 3.113 3.112S36.087 15.215 36.087 13.499zM32.974 14.611c-0.614 0-1.113-0.499-1.113-1.112 0-0.614 0.499-1.113 1.113-1.113s1.113 0.499 1.113 1.113C34.087 14.112 33.588 14.611 32.974 14.611z" fill="#ffffff" data-fill-palette-color="accent"></path><path d="M63 95.643c-2.327 0-4.149 2.612-4.149 5.947 0 3.334 1.822 5.946 4.149 5.946s4.149-2.612 4.149-5.946C67.149 98.256 65.327 95.643 63 95.643zM63 105.537c-1.017 0-2.149-1.621-2.149-3.946 0-2.326 1.132-3.947 2.149-3.947s2.149 1.621 2.149 3.947C65.149 103.916 64.017 105.537 63 105.537z" fill="#ffffff" data-fill-palette-color="accent"></path><path d="M102.806 125.265c0.02-0.071 0.04-0.14 0.044-0.216 0.001-0.017 0.01-0.031 0.01-0.048 0-0.048-0.021-0.089-0.027-0.135-0.007-0.052 0.001-0.103-0.015-0.155-0.066-0.218-0.123-0.435-0.179-0.65-0.478-1.852-0.687-4.967-0.908-8.265-0.404-6.022-0.862-12.848-3.088-16.469-0.636-1.036-1.408-1.868-2.242-2.55-0.126-0.605-0.197-1.201-0.187-1.809 0.023-1.476 0.474-2.415 0.996-3.503 0.773-1.613 1.65-3.442 1.428-7.168-0.186-3.108-1.026-4.785-1.839-6.406-0.815-1.626-1.584-3.161-1.625-6.313-0.039-3.033 0.857-4.835 1.805-6.742 0.994-2 2.022-4.067 2.022-7.479 0-3.852-1.303-6.044-2.453-7.979-0.845-1.422-1.575-2.649-1.673-4.38-0.093-1.614 0.371-2.715 0.958-4.108 0.86-2.044 1.932-4.588 1.338-9.492-0.742-6.138-4.079-9.581-5.835-10.999 0.365-0.304 0.76-0.603 1.191-0.896 0.295-0.201 0.46-0.544 0.435-0.899-0.026-0.355-0.239-0.671-0.56-0.827-2.096-1.02-4.04-1.448-5.734-1.317-1.269-4.684-4.897-7.568-10.789-8.594-0.729-1.283-1.999-2.057-3.576-2.106-0.349-0.039-0.643 0.143-0.838 0.407-0.195 0.266-0.247 0.61-0.138 0.921 0.447 1.282 0.425 2.353-0.06 3.014-0.316 0.43-0.8 0.645-1.294 0.742-0.175-3.259-1.198-4.253-2.688-5.33-1.065-0.771-2.272-1.644-3.334-4.828-0.142-0.425-0.554-0.71-0.998-0.683-0.448 0.022-0.827 0.34-0.926 0.777-0.722 3.173-1.866 3.967-3.077 4.808-1.32 0.917-2.68 1.861-2.912 5.257-0.498-0.097-0.985-0.311-1.302-0.743-0.485-0.661-0.507-1.731-0.06-3.014 0.108-0.311 0.057-0.655-0.138-0.921-0.195-0.265-0.489-0.446-0.838-0.407-1.576 0.049-2.846 0.824-3.576 2.106-3.039 0.529-5.48 1.548-7.3 3.059-0.692-3.541-3.245-6.518-7.759-9.048-0.293-0.165-0.651-0.172-0.949-0.016-0.299 0.154-0.5 0.449-0.535 0.784-0.005 0.05-0.01 0.099-0.014 0.147-2.819-1.905-6.102-2.839-9.757-2.789-0.045 0.001-0.085 0.017-0.128 0.023-0.043 0.006-0.084 0.011-0.127 0.023-0.092 0.026-0.177 0.066-0.257 0.116-0.019 0.012-0.041 0.014-0.06 0.027-0.004 0.003-0.006 0.008-0.011 0.011-0.097 0.072-0.179 0.162-0.245 0.265-0.019 0.031-0.028 0.064-0.044 0.097-0.029 0.058-0.063 0.112-0.08 0.176-0.868 3.212-0.851 6.322 0.045 9.278-0.204-0.031-0.419-0.055-0.646-0.07-0.294-0.009-0.58 0.091-0.785 0.301s-0.307 0.5-0.279 0.792c0.509 5.359 1.96 8.939 4.435 10.944 1.525 1.235 3.447 1.856 5.728 1.856 0.068 0 0.144-0.012 0.213-0.013-1.227 1.839-2.346 4.321-2.739 7.566-0.593 4.904 0.478 7.448 1.338 9.492 0.587 1.394 1.051 2.494 0.958 4.109-0.099 1.729-0.829 2.957-1.673 4.379C28.303 51.312 27 53.505 27 57.356c0 3.412 1.028 5.479 2.022 7.479 0.948 1.907 1.844 3.709 1.805 6.742-0.023 1.813-0.885 3.01-1.718 4.166-0.748 1.039-1.503 2.11-1.396 3.433-0.908 0.607-1.411 1.608-1.496 2.902L24.77 72.025c-0.207-0.854-1.223-2.472-3.588-2.472-2.463 0-3.295 1.94-3.394 3.024l-0.165 4.856c-0.67-0.031-1.355 0.093-1.99 0.425-0.925 0.484-1.606 1.301-1.917 2.298-0.02 0.064-0.024 0.129-0.04 0.193-0.989-0.373-2.122-0.353-3.129 0.175-1.14 0.598-1.846 1.694-2.009 2.881-0.002 0.013-0.011 0.023-0.013 0.036 0 0-0.082 0.559-0.207 1.531l-5.488 1.203c-0.005 0.001-0.008 0.005-0.013 0.006C1.222 86.332 0 88.005 0 90.138c0 2.233 1.335 3.982 3.039 3.985 0.001 0 0.002 0 0.003 0 0 0 0 0 0.001 0s0 0 0 0c0.002 0 0.003-0.001 0.005-0.001 0.069 0 0.14-0.008 0.211-0.023l0.046-0.01c0.188-0.02 0.37-0.059 0.546-0.121l3.597-0.794-0.05 0.589c-0.249 2.893-0.515 6.02-0.628 9.1-0.001 0.024-0.003 0.046-0.002 0.07-0.221 6.139 0.181 12.075 2.612 15.545 3.401 4.854 10.546 7.522 20.128 7.522 0.039 0 0.079 0 0.117 0h0.168 72.067c0 0 0 0 0 0 0 0 0 0 0 0 0.096 0 0.194-0.014 0.291-0.043 0.018-0.005 0.03-0.019 0.047-0.025 0.065-0.024 0.12-0.06 0.178-0.096 0.054-0.033 0.109-0.062 0.155-0.104 0.045-0.041 0.078-0.092 0.115-0.141 0.041-0.054 0.082-0.104 0.111-0.165C102.78 125.376 102.79 125.32 102.806 125.265zM99.734 115.93c0.217 3.234 0.41 6.056 0.841 8.071h-4.483c-0.468-2.61-0.673-5.298-0.814-7.649l-0.094-1.668c-0.281-5.08-0.523-9.467-2.422-11.701-1.622-1.904-4.319-2.74-7.211-2.226-3.287 0.579-6.068 2.72-7.069 5.41-0.021 0.05-0.048 0.119-0.081 0.207-0.148 0.398-0.456 1.228-1.278 2.185-1.305 1.517-3.313 2.656-5.97 3.389-2.262 0.629-5.052 0.938-8.148 0.934-5.018-0.021-9.569-3.656-13.424-8.733-0.018-0.029-0.038-0.054-0.06-0.081-0.952-1.26-1.86-2.609-2.724-4.012-0.027-0.057-0.06-0.109-0.098-0.16-0.81-1.326-1.579-2.696-2.304-4.089-0.031-0.089-0.073-0.169-0.129-0.247-0.271-0.526-0.537-1.053-0.796-1.583 0.234-0.205 0.468-0.405 0.701-0.601 1.263 0.875 2.625 1.351 4.089 1.374-0.931 1.38-1.391 3.081-0.358 4.777 1.424 2.342 4.354 2.075 6.599 1.283-0.134 5.432 2.504 8.844 8.196 10.671 0.1 0.032 0.203 0.048 0.306 0.048s0.206-0.016 0.306-0.048c5.692-1.827 8.331-5.239 8.196-10.671 2.247 0.792 5.175 1.058 6.599-1.283 1.033-1.696 0.573-3.396-0.358-4.776 1.735-0.027 3.337-0.653 4.786-1.878 0.012-0.01 0.017-0.026 0.029-0.037 0.012-0.011 0.029-0.015 0.041-0.028 0.009-0.011 0.97-0.966 2.434-0.137 0.475 0.27 0.727 0.867 0.853 1.394-2.888 0.684-4.926 2.771-6.053 6.24-0.17 0.525 0.117 1.089 0.643 1.26 0.103 0.033 0.207 0.049 0.309 0.049 0.422 0 0.814-0.269 0.951-0.691 0.999-3.077 2.748-4.728 5.342-5.052 0.289-0.009 6.947-0.238 9.858 4.505C98.906 103.575 99.365 110.425 99.734 115.93zM78.13 124.001c-0.434-4.181-2.04-7.76-4.817-10.657 1.871-0.693 3.421-1.611 4.621-2.749 4.454 3.977 6.647 8.229 6.688 12.958-0.294 0.151-0.588 0.302-0.898 0.449H78.13zM49.765 124.001c-2.537-1.55-5.04-3.559-7.443-5.991-1.146-1.166-2.305-2.453-3.44-3.823-0.19-0.232-0.376-0.466-0.563-0.701 4.643-1.535 8.092-3.871 10.466-7.102 3.921 4.87 8.681 8.474 14.211 8.497 3.091 0.035 5.801-0.29 8.123-0.874 2.904 2.676 4.547 5.96 5.003 9.994H49.765zM39.565 124.001c-0.662-2.263-0.915-4.55-0.749-6.831 0.693 0.782 1.389 1.539 2.082 2.244 1.721 1.743 3.498 3.263 5.303 4.587H39.565zM28.51 108.701c3.296 3.8 4.067 9.661 4.756 14.909l0.052 0.392h-2.542C30.422 118.311 29.676 113.266 28.51 108.701zM8.96 99.322c2.449 0.567 4.936 0.867 7.299 0.867 2.465 0 4.775-0.322 6.773-0.933 0.01 1.159 0.106 2.168 0.279 3.061-4.74 1.795-9.726 1.764-14.519-0.096C8.835 101.255 8.894 100.286 8.96 99.322zM18.041 91.543c0.464-0.723 1.397-1.292 2.496-1.523 0.007-0.001 0.058-0.016 0.095-0.027 0.106-0.018 0.214-0.021 0.319-0.048 0.762-0.1 1.498-0.02 2.133 0.21 0.092 0.255 0.453 1.229 1.068 2.708-0.041 0.052-0.066 0.107-0.112 0.158-0.531 0.587-1.381 1.027-2.335 1.208-1.847 0.352-3.644-0.34-3.917-1.507C17.699 92.337 17.785 91.94 18.041 91.543zM25.27 84.013c0.559 0.176 1.154 0.864 1.619 1.86 0.07 0.188 0.134 0.341 0.171 0.423 0.002 0.006 0.007 0.011 0.01 0.017l0.002 0.004c0 0 0 0 0 0 0.002 0.005 0.001 0.011 0.003 0.016l1.894 4.596c0.159 0.386 0.532 0.619 0.925 0.619 0.127 0 0.256-0.024 0.38-0.075 0.511-0.211 0.754-0.795 0.544-1.306l-1.894-4.596c-0.003-0.007-0.01-0.012-0.013-0.019-0.01-0.027-0.017-0.058-0.029-0.081-0.001-0.003-0.004-0.011-0.006-0.014-0.003-0.007-0.002-0.015-0.005-0.022l-0.124-0.3c-0.324-0.883-1.253-3.803 0.335-4.446 1.283-0.515 2.244 0.955 2.828 2.301 0.033 0.071 0.06 0.138 0.112 0.281 0.038 0.087 0.063 0.163 0.084 0.221l0.051 0.147c0 0.001 0.001 0.002 0.002 0.003 0.006 0.018 0.013 0.039 0.015 0.042l1.74 4.6c0.196 0.517 0.772 0.777 1.289 0.582 0.517-0.195 0.777-0.772 0.581-1.289l-1.724-4.553-0.066-0.194c-0.033-0.095-0.077-0.217-0.106-0.273-0.04-0.12-0.092-0.253-0.133-0.335-0.001-0.003-0.002-0.005-0.003-0.007l-0.362-0.962c-0.176-0.492-0.443-1.708-0.15-2.322 0.079-0.165 0.189-0.262 0.366-0.323 0.437-0.152 0.814-0.146 1.152 0.02 0.693 0.338 1.14 1.272 1.24 1.562 0.094 0.326 0.689 2.349 1.746 5.254 0.001 0.006-0.001 0.012 0 0.018 0.011 0.05 0.038 0.09 0.056 0.136 1.05 2.871 2.545 6.573 4.463 10.384-2.862 3.295-6.442 5.624-10.899 7.094-4.177-7.379-6.397-13.581-6.443-13.707-0.029-0.07-0.052-0.14-0.08-0.211-0.018-0.074-0.046-0.141-0.079-0.207-0.831-2.181-1.105-4.415-0.541-4.743C24.745 83.902 25.07 83.95 25.27 84.013zM38.867 74.334c-0.397-2.477 0.19-5.627 1.069-8.059-0.036 3.598 0.474 7.875 3.001 8.537 1.022 0.269 2.002 0.15 2.835-0.342 0.519-0.307 0.917-0.723 1.232-1.151 0.023 1.147-0.401 2.46-1.118 3.422l-4.933 1.081C39.848 77.221 39.143 76.054 38.867 74.334zM62.578 28.676c0.013 0.006 0.027 0.004 0.04 0.01 0.066 0.028 0.136 0.037 0.207 0.05 0.059 0.011 0.116 0.028 0.175 0.028 0.057 0 0.113-0.017 0.17-0.027 0.073-0.013 0.144-0.023 0.212-0.051 0.013-0.005 0.027-0.004 0.04-0.01 3.25-1.511 6.248-2.092 8.957-1.762-0.211 1.723-0.798 3.682-1.637 3.871-0.411 0.091-0.602 0.002-0.708-0.077-0.365-0.266-0.542-0.982-0.569-1.282-0.044-0.551-0.527-0.961-1.077-0.917-0.55 0.045-0.96 0.527-0.916 1.077 0.015 0.188 0.182 1.854 1.374 2.73 0.34 0.251 0.864 0.507 1.585 0.507 0.23 0 0.48-0.026 0.75-0.087 1.169-0.263 1.917-1.248 2.401-2.388 1.255 3.749 3.29 7.258 7.054 8.531 2.275 8.121 2.037 17.417 0.565 18.132-0.297 0.145-0.712 0.103-1.141-0.113-0.791-0.398-1.417-1.268-1.597-2.216-0.084-0.449-0.463-0.784-0.92-0.813-0.455-0.022-0.875 0.256-1.014 0.691-1.074 3.333-0.146 7.025 2.255 8.979 0.999 0.812 2.155 1.223 3.339 1.223 0.158 0 0.317-0.018 0.476-0.032-0.15 0.295-0.302 0.578-0.457 0.836-1.373 2.288-4.179 5.468-8.081 7.96-0.334-0.941-0.913-1.765-1.676-2.277-0.227-0.151-0.505-0.204-0.771-0.146L54.34 74.889c-5.119-2.544-8.841-6.587-10.482-9.324-0.155-0.258-0.307-0.541-0.457-0.836 0.159 0.015 0.318 0.032 0.476 0.032 1.184 0 2.34-0.411 3.339-1.223 2.401-1.953 3.329-5.646 2.255-8.979-0.14-0.436-0.562-0.715-1.014-0.691-0.457 0.028-0.835 0.363-0.92 0.813-0.179 0.948-0.806 1.817-1.597 2.216-0.429 0.216-0.845 0.257-1.141 0.113-1.472-0.715-1.71-10.011 0.565-18.132 3.764-1.273 5.799-4.782 7.054-8.531 0.484 1.14 1.232 2.126 2.401 2.388 0.271 0.061 0.521 0.087 0.75 0.087 0.72 0 1.245-0.256 1.585-0.507 1.192-0.877 1.359-2.543 1.374-2.73 0.044-0.548-0.363-1.026-0.911-1.073-0.552-0.061-1.032 0.359-1.082 0.907-0.028 0.306-0.205 1.022-0.57 1.288-0.106 0.079-0.296 0.168-0.708 0.077-0.839-0.189-1.426-2.147-1.637-3.871C56.331 26.584 59.328 27.164 62.578 28.676zM84.037 66.276c0.01 3.398-0.468 6.336-1.482 6.603-0.503 0.131-0.93 0.092-1.304-0.127-0.564-0.33-0.943-1.021-1.141-1.509 1.665-1.649 2.934-3.293 3.748-4.648C83.918 66.494 83.977 66.382 84.037 66.276zM80.228 74.471c0.833 0.492 1.814 0.609 2.834 0.343 2.52-0.661 3.034-4.916 3.002-8.508 0.949 2.621 1.579 6.089 0.936 8.687-0.438 1.771-1.369 2.812-2.847 3.182-1.385 0.345-2.577 0.061-3.54-0.854-1.138-1.08-1.644-2.723-1.623-3.992C79.305 73.754 79.711 74.165 80.228 74.471zM88.412 49.545c2.269 1.168 3.234 4.36 2.127 7.371-0.797 2.166-2.507 3.698-4.346 4.058C87.157 57.785 87.922 53.881 88.412 49.545zM86.441 42.141c0.1 2.251 0.111 4.266 0.112 5.985-0.56 5.637-1.616 10.686-2.949 14.282-1.24 0.583-2.492 0.444-3.557-0.421-0.981-0.799-1.813-2.261-1.953-4.048 0.323 0.298 0.682 0.55 1.067 0.744 0.989 0.499 2.051 0.544 2.914 0.126 3.437-1.669 2.475-13.753 0.331-21.013-0.099-0.334-0.364-0.593-0.7-0.683-3.216-0.863-5.366-3.857-6.87-9.611 0.147 0.053 0.298 0.091 0.442 0.15C79.734 29.474 83.489 34.35 86.441 42.141zM74.224 94.02c0.034 0.023 3.424 2.406 2.171 4.466-1.254 2.06-5.495-0.116-5.538-0.14-0.329-0.175-0.728-0.152-1.034 0.058-0.307 0.21-0.473 0.572-0.429 0.942 0.629 5.352-1.285 8.397-6.392 10.128-5.107-1.73-7.021-4.776-6.392-10.128 0.043-0.37-0.122-0.733-0.43-0.943-0.308-0.209-0.706-0.23-1.035-0.056-0.042 0.023-4.277 2.208-5.537 0.139-1.253-2.06 2.137-4.442 2.171-4.466 0.415-0.287 0.551-0.838 0.318-1.285-0.233-0.446-0.762-0.65-1.234-0.476-1.888 0.702-3.548 0.629-5.046-0.2 2.279-1.725 4.494-3.041 6.513-4.029 0.752 2.268 3.173 6.646 10.668 6.646 7.497 0 9.921-4.378 10.673-6.644 2.007 0.984 4.229 2.3 6.514 4.029-1.497 0.828-3.158 0.901-5.047 0.199-0.473-0.174-1.001 0.029-1.234 0.476C73.673 93.182 73.81 93.733 74.224 94.02zM47.509 104.717c-2.232 3.29-5.675 5.617-10.488 7.085-0.6-0.804-1.179-1.615-1.736-2.429 4.415-1.698 7.946-4.094 10.518-7.153C46.35 103.073 46.918 103.906 47.509 104.717zM34.145 107.666c-0.615-0.949-1.2-1.894-1.756-2.828 4.36-1.501 7.938-3.789 10.862-6.959 0.457 0.849 0.938 1.695 1.436 2.534C42.231 103.554 38.692 105.989 34.145 107.666zM40.038 85.977l15.961-3.525 0 1.889c-1.046 0.356-2.217 0.81-3.475 1.381-0.001 0-0.001 0-0.002 0.001-2.973 1.349-6.44 3.365-9.945 6.362C41.625 90.009 40.776 87.945 40.038 85.977zM63 92.676c-6.619 0-8.397-3.849-8.853-5.476 0.799-0.34 1.568-0.643 2.268-0.887 0.849 1.699 2.88 3.863 6.585 3.863 3.704 0 5.734-2.163 6.581-3.863 0.698 0.243 1.465 0.54 2.277 0.887C71.402 88.824 69.625 92.676 63 92.676zM67.998 84.911c-0.188 0.549-1.303 3.265-4.998 3.265-3.698 0-4.811-2.704-5.002-3.265l0.001-2.9 10.001-2.209L67.998 84.911zM69.471 77.428c0.047-0.195 0.1-0.387 0.121-0.596 0.102-1.019-0.128-2.157-0.579-3.111l2.556-0.56c0.56 0.58 0.897 1.594 0.793 2.492-0.054 0.466-0.242 1.065-0.829 1.319L69.471 77.428zM41.963 66.276c0.06 0.106 0.119 0.217 0.179 0.318 0.808 1.347 2.098 2.986 3.756 4.631-0.193 0.482-0.574 1.187-1.144 1.522-0.373 0.222-0.801 0.264-1.31 0.13C42.431 72.612 41.953 69.674 41.963 66.276zM51.383 75.537l-2.912 0.638c0.289-0.736 0.465-1.514 0.519-2.276C49.746 74.47 50.538 75.021 51.383 75.537zM44.294 37.114c-0.336 0.09-0.601 0.349-0.7 0.683-2.145 7.26-3.106 19.344 0.331 21.013 0.861 0.418 1.924 0.373 2.913-0.126 0.386-0.194 0.745-0.446 1.067-0.744-0.139 1.787-0.971 3.249-1.953 4.048-1.065 0.865-2.317 1.003-3.557 0.421-1.332-3.596-2.389-8.645-2.949-14.282 0-1.719 0.011-3.734 0.112-5.985 2.952-7.791 6.707-12.667 11.163-14.488 0.144-0.059 0.296-0.097 0.442-0.149C49.66 33.257 47.51 36.251 44.294 37.114zM37.588 49.545c0.49 4.336 1.255 8.239 2.219 11.427-1.836-0.363-3.549-1.891-4.346-4.057C34.354 53.904 35.319 50.712 37.588 49.545zM61.357 75.399c0.237 0.567 0.857 0.974 1.592 0.974 0.939 0 1.699-0.66 1.699-1.473 0-0.074-0.013-0.145-0.025-0.216l2.354-0.516c0.401 0.615 0.713 1.582 0.624 2.467-0.062 0.621-0.31 1.078-0.728 1.368L39.349 84.08c-0.444-1.266-0.838-2.474-1.177-3.601L61.357 75.399zM25.051 97.985l0.489-1.942c1.131 2.473 2.641 5.521 4.513 8.76 0.016 0.026 0.028 0.054 0.046 0.078 0.17 0.294 0.342 0.589 0.519 0.887-1.763 0.117-3.062-0.193-3.927-0.953C25.436 103.715 24.916 101.54 25.051 97.985zM35.249 123.349c-0.706-5.38-1.503-11.361-4.911-15.572 0.453-0.015 0.93-0.058 1.429-0.124 0.374 0.597 0.762 1.197 1.159 1.797 0.012 0.018 0.022 0.037 0.036 0.054 0.897 1.352 1.85 2.705 2.863 4.034 0.001 0.002 0.003 0.004 0.004 0.006 0.399 0.524 0.808 1.044 1.225 1.559-0.492 2.965-0.355 5.95 0.426 8.897h-2.144L35.249 123.349zM79.239 109.079c0.617-0.895 0.9-1.644 1.036-2.009l0.062-0.161c0.776-2.083 2.958-3.725 5.56-4.183 2.187-0.387 4.186 0.194 5.341 1.552 1.462 1.721 1.698 5.992 1.948 10.516l0.079 1.385c-0.456 0.776-2.334 3.605-6.685 6.281C86.241 117.563 83.826 113.164 79.239 109.079zM93.483 119.269c0.131 1.583 0.315 3.174 0.579 4.731h-6.175C90.554 122.324 92.347 120.606 93.483 119.269zM95.185 31.638c0.529 4.378-0.348 6.461-1.196 8.476-0.633 1.503-1.23 2.922-1.112 4.999 0.127 2.218 1.054 3.778 1.951 5.287C95.896 52.196 97 54.055 97 57.356c0 2.942-0.881 4.714-1.813 6.59-1.012 2.035-2.059 4.141-2.014 7.657 0.046 3.611 0.957 5.427 1.837 7.184 0.755 1.507 1.469 2.93 1.63 5.629 0.191 3.209-0.534 4.722-1.235 6.185-0.571 1.19-1.161 2.422-1.192 4.335-0.003 0.153 0.018 0.302 0.022 0.453-2.454-1.212-5.006-1.476-6.347-1.52-0.18-0.921-0.647-2.246-1.864-2.938-1.68-0.951-3.181-0.605-4.121-0.07-4.51-3.518-8.828-5.466-11.904-6.513l0.001-4.988 2.046-0.452c0.046-0.011 0.093-0.024 0.137-0.041 1.211-0.457 2-1.545 2.167-2.984 0.007-0.064 0.004-0.129 0.009-0.193 0.939-0.559 1.828-1.153 2.655-1.776 0.135 1.786 0.956 3.654 2.224 4.858 1.071 1.016 2.397 1.541 3.837 1.541 0.51 0 1.034-0.065 1.565-0.199 2.2-0.551 3.688-2.156 4.302-4.641 0.986-3.987-0.47-9.541-2.234-12.548 2.47-0.526 4.67-2.496 5.708-5.319 1.534-4.17-0.082-8.703-3.602-10.104-0.083-0.033-0.175-0.059-0.263-0.089-0.003-1.407-0.022-2.988-0.088-4.725 1.039-0.36 1.915-0.984 2.634-1.79 0.038-0.045 0.081-0.085 0.11-0.135 1.862-2.189 2.619-5.63 2.329-8.847-0.301-3.34-1.619-5.43-3.439-5.453-0.036 0-0.071-0.001-0.107-0.001-0.474 0-0.917 0.042-1.331 0.121-0.541-1.507-0.099-3.165 1.239-4.767C91.289 22.895 94.497 25.952 95.185 31.638zM91.545 32.096c0.17 1.893-0.092 4.427-1.112 6.316-0.674-1.322-1.383-3.21-1.06-4.681 0.296-1.348 1.347-1.886 2.113-2.101C91.506 31.783 91.53 31.931 91.545 32.096zM84.715 16.908c-0.367 0.149-0.721 0.321-1.049 0.541-0.549-1.865-1.76-3.22-3.93-4.514-0.094-0.057-0.197-0.097-0.305-0.12-1.175-0.25-2.258-0.316-3.244-0.199 0.294-0.866 0.385-1.758 0.321-2.589C81.001 11.028 83.703 13.288 84.715 16.908zM52.383 8.216c-0.11 1.193 0.138 2.25 0.74 3.068 0.809 1.102 2.203 1.701 3.911 1.625 0.54-0.017 0.969-0.459 0.969-0.999 0-3.231 0.83-3.808 2.086-4.681 0.977-0.678 2.129-1.479 3.027-3.405 1.026 1.885 2.128 2.682 2.995 3.309 1.178 0.852 1.889 1.366 1.887 4.776 0 0.541 0.429 0.983 0.969 1 1.699 0.063 3.102-0.523 3.911-1.625 0.602-0.818 0.85-1.875 0.74-3.068 0.429 0.337 0.659 0.809 0.783 1.231 0.37 1.265 0.036 3.098-1.242 4.299-0.209 0.148-0.412 0.311-0.606 0.486-0.39 0.354-0.439 0.948-0.113 1.361 0.327 0.414 0.917 0.503 1.35 0.205 0.221-0.151 0.427-0.313 0.62-0.484 1.132-0.754 2.593-0.941 4.446-0.576 2.186 1.334 2.984 2.557 3.148 4.776 0.03 0.415 0.314 0.767 0.712 0.886 0.398 0.116 0.829-0.022 1.08-0.353 1.591-2.089 4.165-1.808 6.174-1.119-3.515 2.963-4.024 6.087-3.164 8.414-0.404 0.283-0.749 0.625-1.015 1.034-0.465-0.723-0.963-1.39-1.488-2.011-0.078-1.891 0.471-3.277 1.691-4.215 0.438-0.337 0.52-0.965 0.183-1.402-0.337-0.439-0.965-0.52-1.402-0.184-1.268 0.976-2.042 2.29-2.339 3.907-1.143-0.983-2.396-1.777-3.759-2.378 0.74-1.955 0.96-3.626 0.667-5.082-0.109-0.541-0.64-0.894-1.178-0.783-0.542 0.109-0.892 0.636-0.783 1.178 0.217 1.08 0.004 2.405-0.599 3.994-1.624-0.478-3.379-0.723-5.267-0.725 0.236-0.614 0.35-1.292 0.32-1.982-0.062-1.421-0.708-2.62-1.772-3.289-0.468-0.293-1.085-0.152-1.379 0.314-0.294 0.468-0.153 1.085 0.314 1.379 0.5 0.314 0.805 0.928 0.838 1.683 0.038 0.879-0.319 1.736-0.91 2.185-0.355 0.269-0.489 0.74-0.33 1.155s0.57 0.684 1.019 0.638c7.256-0.607 12.345 2.198 15.574 8.604 0.208 0.411 0.668 0.63 1.115 0.524 0.448-0.102 0.769-0.496 0.778-0.955 0.012-0.619 0.051-2.484 2.989-2.467 0.265 0.003 0.633 0.434 0.942 1.219-1.411 0.387-3.109 1.409-3.594 3.62-0.56 2.548 0.878 5.467 1.653 6.799-0.313 0.251-0.662 0.454-1.046 0.61-3.12-7.909-7.15-12.929-11.993-14.909-0.722-0.295-1.471-0.502-2.231-0.665-0.015-0.006-0.033-0.007-0.049-0.012-0.061-0.02-0.12-0.038-0.185-0.046-0.025-0.003-0.045-0.016-0.07-0.017-0.01 0-0.019 0.005-0.029 0.005-3.189-0.6-6.696-0.062-10.471 1.619-3.775-1.681-7.283-2.22-10.47-1.619-0.01 0-0.019-0.005-0.03-0.005-0.025 0.001-0.045 0.014-0.069 0.017-0.067 0.008-0.127 0.027-0.19 0.047-0.01 0.003-0.022 0.004-0.032 0.008-0.765 0.164-1.518 0.371-2.245 0.668-4.843 1.979-8.873 6.999-11.993 14.909-0.383-0.156-0.733-0.359-1.046-0.61 0.775-1.332 2.213-4.25 1.653-6.798-0.485-2.212-2.183-3.234-3.594-3.621 0.309-0.785 0.677-1.215 0.942-1.219 2.914-0.024 2.977 1.848 2.989 2.467 0.009 0.459 0.33 0.854 0.778 0.955 0.448 0.106 0.909-0.113 1.115-0.524 3.229-6.406 8.324-9.212 15.574-8.604 0.448 0.045 0.859-0.223 1.019-0.638s0.025-0.887-0.33-1.155c-0.591-0.448-0.948-1.306-0.91-2.185 0.033-0.755 0.339-1.368 0.838-1.683 0.468-0.294 0.608-0.911 0.314-1.379-0.293-0.468-0.91-0.606-1.379-0.314-1.064 0.669-1.71 1.868-1.772 3.289-0.03 0.69 0.084 1.368 0.32 1.982-1.888 0.002-3.643 0.246-5.267 0.725-0.603-1.59-0.816-2.914-0.599-3.995 0.109-0.542-0.242-1.068-0.783-1.178-0.543-0.113-1.069 0.242-1.178 0.783-0.292 1.456-0.073 3.127 0.667 5.082-1.362 0.602-2.615 1.395-3.759 2.378-0.297-1.618-1.071-2.932-2.339-3.908-0.437-0.335-1.066-0.256-1.402 0.184-0.337 0.438-0.255 1.065 0.183 1.402 1.22 0.938 1.769 2.324 1.691 4.215-0.525 0.622-1.023 1.288-1.488 2.011-0.265-0.407-0.611-0.748-1.016-1.031 0.861-2.327 0.353-5.452-3.164-8.416 2.009-0.688 4.583-0.969 6.174 1.119 0.251 0.33 0.682 0.467 1.08 0.353 0.398-0.119 0.682-0.471 0.712-0.886 0.164-2.22 0.963-3.442 3.148-4.776 1.852-0.366 3.314-0.178 4.446 0.576 0.192 0.171 0.399 0.333 0.62 0.484 0.434 0.297 1.023 0.21 1.35-0.205 0.326-0.413 0.277-1.008-0.113-1.361-0.194-0.176-0.396-0.338-0.606-0.486-1.277-1.201-1.611-3.034-1.241-4.299C51.724 9.024 51.954 8.553 52.383 8.216zM34.455 32.096c0.015-0.165 0.039-0.312 0.059-0.467 0.766 0.215 1.817 0.754 2.113 2.103 0.323 1.47-0.386 3.358-1.06 4.68C34.547 36.522 34.285 33.989 34.455 32.096zM33.182 21.783c-1.179-0.632-2.254-1.588-3.064-2.787-2.191-3.246-1.975-7.237 0.482-8.896 2.458-1.661 6.241-0.371 8.433 2.875 0.377 0.558 0.672 1.152 0.913 1.761-0.242 0.545-0.448 1.118-0.612 1.722-1.694-0.13-3.638 0.299-5.734 1.318-0.321 0.156-0.534 0.472-0.56 0.827-0.025 0.355 0.14 0.698 0.435 0.899 0.43 0.293 0.826 0.592 1.191 0.896C34.243 20.74 33.73 21.197 33.182 21.783zM49.492 10.026c-0.063 0.831 0.027 1.723 0.321 2.589-0.987-0.116-2.07-0.05-3.244 0.199-0.107 0.023-0.21 0.063-0.305 0.12-2.17 1.294-3.381 2.648-3.93 4.514-0.328-0.22-0.682-0.392-1.049-0.541C42.297 13.288 44.999 11.028 49.492 10.026zM23.339 12.203c0.291 0.134 0.499 0.32 0.708 0.562 0.329 0.38 0.889 0.455 1.308 0.178s0.566-0.822 0.345-1.273c-1.274-2.594-1.719-5.352-1.343-8.224l2.412 3.335c0.195 0.271 0.501 0.414 0.811 0.414 0.203 0 0.408-0.062 0.585-0.189 0.448-0.324 0.548-0.949 0.224-1.396l-2.542-3.513c3.515 0.352 6.483 1.791 9.019 4.385 0.011 0.011 0.021 0.021 0.032 0.032 0.386 0.394 1.018 0.398 1.412 0.014 0.394-0.386 0.402-1.018 0.018-1.412-0.009-0.01-0.019-0.02-0.028-0.028-0.061-0.063-0.118-0.127-0.17-0.191 3.107 2.176 4.663 4.598 4.855 7.463-0.1-0.166-0.185-0.34-0.294-0.502-2.809-4.16-7.838-5.688-11.209-3.414-3.372 2.277-3.83 7.514-1.021 11.674 0.389 0.576 0.832 1.106 1.311 1.591-1.113-0.199-2.072-0.615-2.884-1.273C25.049 18.944 23.883 16.245 23.339 12.203zM32.827 71.603c0.044-3.517-1.002-5.622-2.014-7.657C29.881 62.07 29 60.299 29 57.356c0-3.302 1.104-5.16 2.172-6.957 0.896-1.509 1.824-3.069 1.951-5.287 0.119-2.077-0.479-3.496-1.112-4.999-0.848-2.015-1.726-4.098-1.196-8.476 0.452-3.733 1.968-6.315 3.358-7.962 0.004-0.004 0.007-0.008 0.011-0.013 0.737-0.871 1.43-1.479 1.914-1.85 1.339 1.603 1.783 3.262 1.242 4.769-0.446-0.086-0.926-0.128-1.438-0.119-1.82 0.023-3.138 2.113-3.439 5.453-0.29 3.217 0.467 6.657 2.329 8.847 0.029 0.05 0.072 0.09 0.11 0.135 0.719 0.806 1.595 1.429 2.634 1.79-0.066 1.736-0.085 3.318-0.088 4.725-0.088 0.03-0.18 0.056-0.263 0.089-3.52 1.4-5.135 5.934-3.602 10.104 1.037 2.819 3.232 4.788 5.698 5.317-1.697 2.87-2.995 7.957-2.39 11.729 0.245 1.528 0.79 2.775 1.597 3.711l-1.054 0.231c-0.357-0.607-0.926-1.335-1.785-1.759-0.821-0.404-1.753-0.446-2.701-0.117-0.684 0.239-1.208 0.708-1.516 1.355-0.136 0.287-0.21 0.596-0.258 0.906-0.455-0.248-0.933-0.384-1.429-0.398 0.119-0.425 0.444-0.916 0.986-1.668C31.651 75.637 32.796 74.048 32.827 71.603zM19.782 72.718c0.042-0.35 0.263-1.164 1.4-1.164 1.22 0 1.56 0.701 1.637 0.924l1.378 9.596c-0.307 0.078-0.633 0.202-0.978 0.402-0.207 0.12-0.374 0.271-0.524 0.434l-1.783-3.403c-0.316-0.603-0.778-1.073-1.309-1.424L19.782 72.718zM15.624 80.753c0.152-0.486 0.485-0.885 0.937-1.122 0.282-0.147 0.584-0.218 0.883-0.218 0.688 0 1.354 0.372 1.695 1.022l2.535 4.836c0.237 0.452 0.284 0.97 0.132 1.457-0.152 0.486-0.485 0.885-0.937 1.122-0.105 0.055-0.214 0.097-0.324 0.131-0.002 0-0.004 0-0.006 0.001v0.001c-0.012 0.002-0.025 0.004-0.037 0.006-0.113 0.012-0.234 0.034-0.373 0.072-0.238 0.018-0.48-0.006-0.716-0.079-0.486-0.152-0.884-0.484-1.121-0.934l-0.687-1.311-1.848-3.528C15.519 81.758 15.472 81.24 15.624 80.753zM11.474 82.297c0.271-0.142 0.561-0.209 0.847-0.209 0.661 0 1.3 0.357 1.627 0.981l1.303 2.486 1.267 2.418c0 0.001 0.001 0.001 0.002 0.002l0.035 0.066c0.469 0.896 0.123 2.006-0.772 2.475-0.434 0.228-0.929 0.272-1.397 0.126-0.467-0.146-0.85-0.465-1.077-0.898l-2.606-4.973C10.233 83.876 10.579 82.766 11.474 82.297zM8.261 90.946c-0.008 0.002-0.015 0.003-0.023 0.005l-2.334 0.516c0.11-0.416 0.181-0.858 0.181-1.329 0-0.952-0.253-1.804-0.663-2.482l4.067-0.891 1.837 3.506L8.261 90.946zM3.042 88.153c0.425 0 1.042 0.773 1.042 1.984 0 1.001-0.421 1.695-0.807 1.909l-0.291 0.064C2.565 92.05 2 91.299 2 90.138 2 88.927 2.617 88.153 3.042 88.153zM12.717 92.011c0.65 0.46 1.426 0.715 2.221 0.715 0.278 0 0.557-0.034 0.834-0.096 0.011 0.18 0.024 0.36 0.065 0.539 0.447 1.911 2.471 3.155 4.877 3.155 0.443 0 0.9-0.043 1.363-0.131 0.526-0.1 1.016-0.271 1.482-0.474l-0.349 1.387c-3.667 1.349-9.056 1.412-14.102 0.196 0.091-1.146 0.187-2.275 0.281-3.368l0.103-1.212L12.717 92.011zM11.016 117.33c-1.958-2.794-2.403-7.698-2.293-12.984 2.466 0.876 4.976 1.32 7.479 1.32 2.587 0 5.165-0.496 7.683-1.433 0.37 0.842 0.857 1.534 1.484 2.084 0.155 0.136 0.335 0.24 0.505 0.358 1.531 5.053 2.48 10.736 2.897 17.314C20.239 123.86 13.948 121.514 11.016 117.33z" fill="#ffffff" data-fill-palette-color="accent"></path><circle cx="73" cy="48.08" r="2.0" fill="#ffffff" data-fill-palette-color="accent"></circle><circle cx="53" cy="48.08" r="2.0" fill="#ffffff" data-fill-palette-color="accent"></circle><circle cx="63" cy="37.58" r="1.5" fill="#ffffff" data-fill-palette-color="accent"></circle><ellipse cx="63" cy="23.144" rx="1.394" ry="2.362" fill="#ffffff" data-fill-palette-color="accent"></ellipse></g></svg></g></svg></g></svg></g></svg></g></svg></g><defs></defs><mask id="f655d1fe-2990-41dc-bfe4-c54622db7ad1"><g id="SvgjsG2265"><svg viewBox="0 0 395.52 247.2" height="247.2" width="395.52"><g><svg></svg></g><g><svg viewBox="0 0 395.52 247.2" height="247.2" width="395.52"><g></g><g transform="matrix(1,0,0,1,4.989463104939034,67.97999999999999)"><svg viewBox="0 0 385.5410737901219 111.24" height="111.24" width="385.5410737901219"><g><svg viewBox="0 0 387.4687791590725 111.79619999999998" height="111.24" width="385.5410737901219"><g><rect width="10.031737999679999" height="111.79619999999998" x="117.07257230638939" y="0" fill="white" opacity="1" stroke-width="0" stroke="transparent" fill-opacity="1" class="rect-o-0" rx="1%" id="SvgjsRect2264" data-palette-color="url(#46855add-472d-402d-a687-b8fde06ad52d)"></rect></g><g transform="matrix(1,0,0,1,153.36540454606939,0.2780999999999949)"><svg viewBox="0 0 234.10337461300307 111.24" height="111.24" width="234.10337461300307"><g id="SvgjsG2263"><svg viewBox="0 0 234.10337461300307 111.24" height="111.24" width="234.10337461300307" id="SvgjsSvg2262"><g><svg viewBox="0 0 234.10337461300307 111.24" height="111.24" width="234.10337461300307"><g transform="matrix(1,0,0,1,0,0)"><svg width="234.10337461300307" viewBox="1.0499999523162842 -30.959999084472656 66.37999725341797 31.549999237060547" height="111.24" data-palette-color="url(#46855add-472d-402d-a687-b8fde06ad52d)"><path d="M1.05 0L13.7 0 14.14-2.93 10.33-4.2 11.5-21.41 18.63-0.29 23.63-0.98 31.03-21.73 32.35-4.32 28.98-2.78 28.54 0 42.92 0 43.21-2.93 38.84-4.2 37.35-26.42 41.38-27.54 41.72-30.37 29.57-30.37 27.91-25.93 22.19-10.4 17.11-25.49 15.28-30.37 2.95-30.37 2.66-27.54 7.13-26.32 5.54-4.32 1.44-2.78 1.05 0ZM55.32 0.59Q58.05 0.59 60.86-0.48 63.67-1.54 65.55-3.7 67.43-5.86 67.43-8.98L67.43-8.98Q67.43-11.52 66.15-13.33 64.87-15.14 63.08-16.26 61.3-17.38 58.42-18.75L58.42-18.75Q56.27-19.75 55.08-20.45 53.88-21.14 53.07-22.08 52.27-23.02 52.27-24.22L52.27-24.22Q52.27-25.9 53.23-26.82 54.2-27.73 55.78-27.73L55.78-27.73Q57.18-27.73 58.53-27.01 59.89-26.29 60.47-25.34L60.47-25.34 61.25-21.29 64.57-20.75Q64.67-21.92 64.94-25.15 65.21-28.37 65.21-28.61L65.21-28.61Q64.06-29.64 61.78-30.3 59.49-30.96 57.44-30.96L57.44-30.96Q54.54-30.96 51.94-29.9 49.34-28.83 47.71-26.72 46.09-24.61 46.09-21.63L46.09-21.63Q46.09-19.07 47.32-17.27 48.56-15.48 50.25-14.4 51.95-13.33 54.71-12.01L54.71-12.01Q56.66-11.08 57.77-10.44 58.88-9.79 59.63-8.92 60.37-8.06 60.37-6.93L60.37-6.93Q60.37-5.76 59.75-4.91 59.13-4.05 58.1-3.6 57.08-3.15 55.93-3.15L55.93-3.15Q54.32-3.15 52.85-3.85 51.39-4.54 50.66-5.62L50.66-5.62 49.68-10.18 46.26-10.69 45.7-3.03Q46.82-1.46 49.42-0.44 52.02 0.59 55.32 0.59L55.32 0.59Z" opacity="1" transform="matrix(1,0,0,1,0,0)" fill="white" class="wordmark-text-0" id="SvgjsPath2261"></path></svg></g></svg></g></svg></g></svg></g><g transform="matrix(1,0,0,1,0,0.2780999999999949)"><svg viewBox="0 0 90.81147806638938 111.24" height="111.24" width="90.81147806638938"><g><svg xmlns="http://www.w3.org/2000/svg" xmlns:xlink="http://www.w3.org/1999/xlink" version="1.1" x="0" y="0" viewBox="0 0.0010929107666015625 102.86000061035156 125.9989013671875" style="enable-background:new 0 0 102.859 126.001;" xml:space="preserve" width="90.81147806638938" height="111.24" class="icon-icon-0" data-fill-palette-color="accent" id="SvgjsSvg2260"></svg></g></svg></g></svg></g></svg></g></svg></g><defs><mask></mask></defs></svg></g></mask><linearGradient x1="0" x2="1" y1="0.578" y2="0.595" id="46855add-472d-402d-a687-b8fde06ad52d"><stop stop-color="#6ee2f5" offset="0"></stop><stop stop-color="#6454f0" offset="1"></stop></linearGradient><rect width="395.5199890136719" height="247.1999969482422" fill="#ffffff" mask="url(#f655d1fe-2990-41dc-bfe4-c54622db7ad1)" data-fill-palette-color="primary"></rect><mask id="3efbcbda-a7f6-4de2-8c2a-63e9644ee64b"><g id="SvgjsG2275"><svg viewBox="0 0 395.52 247.2" height="247.2" width="395.52"><g><svg></svg></g><g><svg viewBox="0 0 395.52 247.2" height="247.2" width="395.52"><g><path xmlns="http://www.w3.org/2000/svg" d="M55.039 247.2l26.403-45.732 232.636 0 26.403 45.732zM197.76 0l26.403 45.732-52.806 0z" fill="white" fill-rule="nonzero" stroke="none" stroke-width="1" stroke-linecap="butt" stroke-linejoin="miter" stroke-miterlimit="10" stroke-dasharray="" stroke-dashoffset="0" font-family="none" font-weight="none" font-size="none" text-anchor="none" style="mix-blend-mode: normal"></path></g><g transform="matrix(1,0,0,1,4.989463104939034,67.97999999999999)"><svg viewBox="0 0 385.5410737901219 111.24" height="111.24" width="385.5410737901219"><g><svg viewBox="0 0 387.4687791590725 111.79619999999998" height="111.24" width="385.5410737901219"><g></g><g transform="matrix(1,0,0,1,153.36540454606939,0.2780999999999949)"><svg viewBox="0 0 234.10337461300307 111.24" height="111.24" width="234.10337461300307"><g id="SvgjsG2274"><svg viewBox="0 0 234.10337461300307 111.24" height="111.24" width="234.10337461300307" id="SvgjsSvg2273"><g><svg viewBox="0 0 234.10337461300307 111.24" height="111.24" width="234.10337461300307"><g transform="matrix(1,0,0,1,0,0)"><svg width="234.10337461300307" viewBox="1.0499999523162842 -30.959999084472656 66.37999725341797 31.549999237060547" height="111.24" data-palette-color="url(#46855add-472d-402d-a687-b8fde06ad52d)"></svg></g></svg></g></svg></g></svg></g><g transform="matrix(1,0,0,1,0,0.2780999999999949)"><svg viewBox="0 0 90.81147806638938 111.24" height="111.24" width="90.81147806638938"><g><svg xmlns="http://www.w3.org/2000/svg" xmlns:xlink="http://www.w3.org/1999/xlink" version="1.1" x="0" y="0" viewBox="0 0.0010929107666015625 102.86000061035156 125.9989013671875" style="enable-background:new 0 0 102.859 126.001;" xml:space="preserve" width="90.81147806638938" height="111.24" class="icon-icon-0" data-fill-palette-color="accent" id="SvgjsSvg2272"></svg></g></svg></g></svg></g></svg></g></svg></g><defs><mask></mask></defs><mask><g id="SvgjsG2271"><svg viewBox="0 0 395.52 247.2" height="247.2" width="395.52"><g><svg></svg></g><g><svg viewBox="0 0 395.52 247.2" height="247.2" width="395.52"><g></g><g transform="matrix(1,0,0,1,4.989463104939034,67.97999999999999)"><svg viewBox="0 0 385.5410737901219 111.24" height="111.24" width="385.5410737901219"><g><svg viewBox="0 0 387.4687791590725 111.79619999999998" height="111.24" width="385.5410737901219"><g></g><g transform="matrix(1,0,0,1,153.36540454606939,0.2780999999999949)"><svg viewBox="0 0 234.10337461300307 111.24" height="111.24" width="234.10337461300307"><g id="SvgjsG2269"><svg viewBox="0 0 234.10337461300307 111.24" height="111.24" width="234.10337461300307" id="SvgjsSvg2268"><g><svg viewBox="0 0 234.10337461300307 111.24" height="111.24" width="234.10337461300307"><g transform="matrix(1,0,0,1,0,0)"><svg width="234.10337461300307" viewBox="1.0499999523162842 -30.959999084472656 66.37999725341797 31.549999237060547" height="111.24" data-palette-color="url(#46855add-472d-402d-a687-b8fde06ad52d)"></svg></g></svg></g></svg></g></svg></g><g transform="matrix(1,0,0,1,0,0.2780999999999949)"><svg viewBox="0 0 90.81147806638938 111.24" height="111.24" width="90.81147806638938"><g><svg xmlns="http://www.w3.org/2000/svg" xmlns:xlink="http://www.w3.org/1999/xlink" version="1.1" x="0" y="0" viewBox="0 0.0010929107666015625 102.86000061035156 125.9989013671875" style="enable-background:new 0 0 102.859 126.001;" xml:space="preserve" width="90.81147806638938" height="111.24" class="icon-icon-0" data-fill-palette-color="accent" id="SvgjsSvg2266"></svg></g></svg></g></svg></g></svg></g></svg></g><defs><mask></mask></defs></svg></g></mask></svg></g></mask><linearGradient x1="0" x2="1" y1="0.578" y2="0.595" id="19c43e26-f471-4361-950d-c0c03a884d4e"><stop stop-color="#6ee2f5" offset="0"></stop><stop stop-color="#6454f0" offset="1"></stop></linearGradient></svg><rect width="395.52" height="247.2" fill="none" stroke="none" visibility="hidden"></rect></g></svg></g></svg>